<svg width="122" height="220" viewBox="0 0 122 220" fill="none" xmlns="http://www.w3.org/2000/svg">
    <symbol id="logo-passive" viewBox="0 0 151 113">
        <path d="M68.3698 6.42536C61.559 14.2707 56.3698 22.7698 54.9104 28.6537C53.2887 34.8646 52.1536 35.1915 42.4239 32.413C30.7482 29.1441 15.0185 27.6731 6.91037 28.9806L0.261719 30.1247L5.12658 33.0667C12.4239 37.6432 18.0996 46.9595 22.6401 62.4866C30.0996 86.8398 31.8833 90.9259 39.6671 98.7712C57.505 116.914 92.8563 116.914 110.694 98.7712C118.478 90.9259 120.262 86.8398 127.721 62.4866C132.424 46.9595 137.937 37.6432 145.235 33.0667L150.262 30.1247L142.478 28.8172C137.289 28.1634 129.181 28.6537 119.127 30.4516C96.0996 34.5377 98.0455 35.0281 94.4779 25.3849C91.559 17.703 78.2617 0.37793 75.1806 0.37793C74.532 0.37793 71.4509 3.15648 68.3698 6.42536ZM81.6671 12.9631C87.1806 19.174 92.8563 30.4516 93.0185 34.8646C93.0185 36.3356 88.9644 40.2583 84.0996 43.5271L75.1806 49.4111L66.2617 43.5271C61.3969 40.2583 57.3428 36.4991 57.3428 35.1915C57.3428 28.9806 71.2887 6.91569 75.3428 6.91569C75.9914 6.91569 78.7482 9.69424 81.6671 12.9631ZM36.4239 35.3549C47.9374 37.8066 58.1536 42.383 66.7482 49.0842C71.7752 52.8435 71.9374 53.3338 69.505 56.6027C60.7482 68.861 56.2077 86.5129 58.8023 98.2809C60.4239 105.963 58.9644 106.78 51.0185 102.53C42.0996 97.954 34.8023 87.1667 30.4239 72.2933C24.7482 53.1703 22.1536 46.3057 17.4509 39.1142L13.559 33.0667H19.559C22.9644 33.0667 30.586 34.2108 36.4239 35.3549ZM133.721 37.8066C129.181 44.1809 124.478 55.7854 121.235 67.7169C116.045 87.9839 106.64 100.733 93.505 105.146C86.532 107.434 66.4239 108.088 64.4779 106.126C63.6671 105.309 63.0185 98.7712 63.0185 91.4162C63.0185 79.9752 63.6671 76.5428 67.559 68.861C77.6131 48.267 103.073 33.7205 129.991 33.2302L136.964 33.0667L133.721 37.8066Z" fill="#446E61"/>
    </symbol>
   <symbol id="palette-icon" viewBox="0 0 16 16">
        <rect style="opacity:1;vector-effect:none;fill:#373737;fill-opacity:1;stroke:none;stroke-width:3.20000005;stroke-linecap:square;stroke-linejoin:round;stroke-miterlimit:4;stroke-dasharray:none;stroke-dashoffset:3.20000005;stroke-opacity:1" id="rect1290" width="16" height="16" x="0" y="0"/>
        <rect y="1" x="1" height="4.0000005" width="4.0000005" id="rect6829-4" style="display:inline;fill:#5da1f3;fill-opacity:1;stroke:none;stroke-width:1.15467715"/>
        <rect style="display:inline;fill:#5dd3f3;fill-opacity:1;stroke:none;stroke-width:1.15467715" id="rect6831-7" width="4.0000005" height="4.0000005" x="6" y="1"/>
        <rect y="1" x="11" height="4.0000005" width="4.0000005" id="rect6833-1" style="display:inline;fill:#5df3e3;fill-opacity:1;stroke:none;stroke-width:1.15467715"/>
        <rect style="display:inline;fill:#f35d5d;fill-opacity:1;stroke:none;stroke-width:1.15466905" id="rect6835-3" width="4.0000005" height="3.999944" x="1" y="6"/>
        <rect y="11" x="1" height="4.0000005" width="4.0000005" id="rect6837-2" style="display:inline;fill:#f3c05d;fill-opacity:1;stroke:none;stroke-width:1.15467715"/>
        <rect y="6" x="6" height="3.999944" width="4.0000005" id="rect6839-1" style="display:inline;fill:#f35d99;fill-opacity:1;stroke:none;stroke-width:1.15466905"/>
        <rect style="display:inline;fill:#d55df3;fill-opacity:1;stroke:none;stroke-width:1.15466905" id="rect6841-6" width="4.0000005" height="3.999944" x="11" y="6"/>
        <rect style="display:inline;fill:#d5f35d;fill-opacity:1;stroke:none;stroke-width:1.15467715" id="rect6843-3" width="4.0000005" height="4.0000005" x="6" y="11"/>
        <rect y="11" x="11" height="4.0000005" width="4.0000005" id="rect6845-8" style="display:inline;fill:#8bf35d;fill-opacity:1;stroke:none;stroke-width:1.15467715"/>
   </symbol>
   <symbol id="picture-icon" viewBox="0 0 48 48">
        <rect x="1" y="2" width="46" height="45" rx="4" ry="4" fill="#38b1e7"/>
        <circle cx="32" cy="15" r="7" fill="#f9d74a"/>
        <path d="M35,31.13l-6.77,8.29L16.75,25a2,2,0,0,0-3.15,0L1.74,40.57A4,4,0,0,0,4.92,47H43.08a4,4,0,0,0,3-6.62l-8-9.29A2,2,0,0,0,35,31.13Z" fill="#826f57"/>
   </symbol>
   <symbol id="copy-icon" viewBox="0 0 24 24" fill="none">
        <path d="M20.9983 10C20.9862 7.82497 20.8897 6.64706 20.1213 5.87868C19.2426 5 17.8284 5 15 5H12C9.17157 5 7.75736 5 6.87868 5.87868C6 6.75736 6 8.17157 6 11V16C6 18.8284 6 20.2426 6.87868 21.1213C7.75736 22 9.17157 22 12 22H15C17.8284 22 19.2426 22 20.1213 21.1213C21 20.2426 21 18.8284 21 16V15" stroke="#1C274C" stroke-width="1.5" stroke-linecap="round"/>
        <path d="M3 10V16C3 17.6569 4.34315 19 6 19M18 5C18 3.34315 16.6569 2 15 2H11C7.22876 2 5.34315 2 4.17157 3.17157C3.51839 3.82475 3.22937 4.69989 3.10149 6" stroke="#1C274C" stroke-width="1.5" stroke-linecap="round"/>
   </symbol>
</svg>
